<?xml version="1.0" standalone="no"?>
<!DOCTYPE svg PUBLIC "-//W3C//DTD SVG 20010904//EN"
 "http://www.w3.org/TR/2001/REC-SVG-20010904/DTD/svg10.dtd">
<svg version="1.0" xmlns="http://www.w3.org/2000/svg"
 width="1024.000000pt" height="1024.000000pt" viewBox="0 0 1024.000000 1024.000000"
 preserveAspectRatio="xMidYMid meet">

<g transform="translate(0.000000,1024.000000) scale(0.100000,-0.100000)"
fill="#000000" stroke="none">
<path d="M0 5120 l0 -5120 5120 0 5120 0 0 5120 0 5120 -5120 0 -5120 0 0
-5120z m5260 3880 c99 -53 180 -139 217 -230 17 -41 34 -96 38 -123 4 -26 11
-50 16 -52 4 -3 51 -10 105 -15 102 -9 116 -17 112 -60 -3 -25 -3 -25 -120
-28 l-116 -3 -16 -47 c-42 -122 -173 -243 -286 -261 -31 -6 -35 -10 -42 -46
-4 -22 -5 -93 -2 -158 l6 -118 -48 3 -49 3 -2 135 c-3 155 -7 180 -29 180 -26
0 -111 47 -176 96 -71 55 -108 109 -145 216 l-28 78 -125 0 c-69 0 -131 4
-139 9 -7 5 -14 26 -15 47 l-1 39 62 3 c55 3 162 -8 202 -19 9 -3 18 17 30 66
22 90 52 146 108 206 87 93 154 120 288 116 81 -3 97 -7 155 -37z m-919 -260
c19 -11 59 -79 59 -102 0 -7 -11 -30 -25 -50 -48 -71 -132 -59 -156 21 -25 85
52 168 122 131z m1579 -142 c40 -55 40 -98 -1 -132 -38 -33 -69 -33 -103 -1
-55 51 -16 173 56 175 10 0 31 -19 48 -42z m209 -23 c50 -25 57 -91 15 -124
-34 -27 -62 -27 -91 1 -30 28 -31 83 -1 115 25 27 39 28 77 8z m-2599 -285
c107 -6 290 -17 405 -25 116 -8 311 -19 435 -25 124 -6 258 -13 298 -16 l73
-6 90 -80 c49 -44 89 -82 89 -84 0 -1 3 -9 6 -18 5 -14 -6 -16 -84 -16 -50 0
-202 6 -339 14 -136 8 -295 16 -353 18 l-104 3 -31 -95 c-38 -121 -100 -233
-187 -336 -76 -92 -158 -155 -297 -226 l-93 -49 1 -659 2 -660 -93 0 -93 0 0
725 -1 725 46 17 c66 24 242 126 311 178 61 48 128 134 172 221 30 59 67 154
67 170 0 7 -56 13 -165 18 -91 3 -185 9 -210 12 l-44 7 4 -54 c3 -30 6 -79 9
-110 l4 -57 -36 4 c-20 2 -63 6 -94 9 l-57 6 -5 42 c-3 23 -8 116 -11 206 l-5
164 47 -7 c27 -3 136 -10 243 -16z m2365 -135 c421 -22 760 -43 918 -57 126
-11 138 -14 142 -33 2 -11 1 -92 -3 -180 l-7 -160 -75 3 c-45 1 -77 7 -82 15
-4 6 -8 46 -8 89 l0 76 -107 7 c-60 3 -141 9 -180 14 l-73 7 0 -28 c0 -47 38
-130 91 -201 68 -90 212 -207 365 -295 l71 -41 6 -113 c9 -144 9 -1181 1
-1231 l-7 -38 -81 3 -81 3 -2 648 -2 648 -80 39 c-79 39 -201 117 -252 162
-99 88 -154 203 -203 431 -6 27 -7 27 -94 27 -48 0 -136 4 -197 10 -60 5 -207
14 -325 20 -290 14 -314 18 -318 50 -1 19 13 41 59 89 l62 64 86 -7 c47 -3
217 -13 376 -21z m-3342 -5 c147 -45 278 -193 306 -345 6 -32 11 -59 11 -60 0
-1 122 -2 272 -3 149 -2 274 -4 276 -7 13 -13 -24 -65 -60 -85 -40 -22 -45
-23 -268 -18 l-227 5 -13 -51 c-41 -162 -152 -270 -317 -307 l-53 -12 0 -157
0 -156 -47 6 -48 5 -3 151 -3 152 -47 12 c-124 31 -247 135 -305 257 -31 65
-32 73 -32 194 0 124 0 125 37 201 47 94 140 186 220 217 74 28 212 28 301 1z
m5237 -196 c117 -35 200 -109 259 -233 35 -74 36 -80 36 -191 0 -108 -2 -119
-32 -182 -17 -37 -51 -88 -75 -114 -46 -50 -144 -104 -189 -104 -24 0 -27 -4
-32 -54 -3 -29 -3 -90 0 -135 l6 -81 -53 0 -53 0 7 71 c4 39 4 99 1 134 -7 62
-8 64 -39 71 -126 26 -256 175 -273 312 l-5 49 -136 7 c-74 3 -175 6 -223 6
-97 0 -121 7 -193 53 l-49 31 39 14 c40 14 101 13 430 -4 l121 -7 7 49 c20
137 137 273 266 308 72 19 115 19 180 0z m-2600 -223 c33 -24 40 -93 13 -123
-69 -76 -173 -47 -173 48 0 36 5 47 36 74 30 26 42 31 68 26 17 -3 42 -15 56
-25z m-2216 -542 c30 -24 34 -63 9 -91 -18 -20 -63 -24 -81 -6 -19 19 -14 76
8 98 25 25 31 25 64 -1z m2196 -2 c44 -29 73 -80 76 -131 1 -27 8 -44 20 -51
41 -23 194 -126 206 -139 11 -12 19 -8 51 20 86 79 207 18 207 -105 0 -37 -6
-49 -37 -81 l-38 -37 27 -69 c15 -38 35 -99 45 -136 17 -65 19 -68 48 -68 17
0 46 -8 65 -19 128 -68 78 -279 -60 -257 l-37 6 -46 -107 -46 -107 24 -28 c58
-69 58 -163 1 -215 -45 -42 -95 -44 -148 -8 -93 63 -61 255 41 255 25 0 31 4
31 21 0 21 65 186 81 205 6 7 3 27 -6 54 -21 59 -19 98 9 147 l24 41 -27 54
c-14 29 -42 91 -61 137 -30 71 -41 87 -77 109 -47 29 -63 57 -63 107 0 27 -4
35 -17 35 -29 0 -199 97 -225 128 -23 27 -23 27 -58 10 -47 -23 -85 -22 -130
3 -46 26 -60 54 -60 123 0 39 6 60 21 80 40 50 105 60 159 23z m2116 -112 c22
-33 6 -72 -32 -81 -35 -9 -58 6 -62 40 -7 59 63 89 94 41z m-2311 -71 c15 -15
15 -18 -2 -36 -21 -24 -133 -97 -185 -121 -35 -17 -38 -21 -38 -62 0 -49 -23
-75 -86 -95 -19 -6 -34 -16 -34 -22 0 -5 -25 -70 -56 -143 l-55 -132 20 -34
c28 -46 27 -113 -3 -164 l-23 -40 33 -66 c18 -36 40 -91 49 -122 13 -44 21
-57 36 -57 35 0 96 -38 107 -67 7 -15 13 -45 14 -66 2 -36 6 -40 63 -68 33
-17 86 -48 118 -70 l59 -39 25 31 c28 33 72 59 101 59 10 0 40 -14 66 -30 l48
-31 56 35 c89 53 162 87 172 81 6 -4 10 -19 10 -35 0 -25 -10 -33 -102 -85
-57 -31 -110 -60 -117 -64 -9 -5 -15 -24 -16 -51 -2 -83 -93 -126 -180 -84
-37 17 -65 66 -65 112 0 25 -3 29 -23 25 -21 -4 -143 52 -214 97 -19 12 -24
12 -41 -3 -31 -28 -87 -40 -127 -27 -98 32 -124 166 -47 248 l28 29 -55 112
-54 111 -42 0 c-122 0 -159 190 -52 265 12 8 38 15 58 15 32 0 38 4 44 28 15
60 87 232 101 240 11 6 8 12 -14 29 -37 28 -62 80 -62 132 0 33 7 49 34 79 32
34 39 37 89 37 47 0 61 -5 93 -31 l38 -30 75 51 c42 29 90 57 106 63 17 6 31
11 32 11 1 1 9 -6 18 -15z m-2470 -178 c51 -51 44 -119 -15 -149 -45 -23 -95
-16 -132 19 -31 31 -35 61 -13 104 20 38 41 49 93 50 32 0 49 -6 67 -24z m490
-6 c39 -41 40 -93 1 -126 -39 -34 -81 -31 -117 7 -32 34 -34 44 -18 86 27 71
84 85 134 33z m4276 -60 c22 -12 49 -60 49 -88 0 -28 -48 -72 -78 -72 -33 0
-82 46 -82 77 0 29 25 79 42 86 22 9 48 8 69 -3z m509 -35 c11 -12 23 -38 27
-58 5 -30 1 -40 -22 -61 -57 -53 -158 -19 -158 52 0 36 26 80 55 91 31 11 74
1 98 -24z m-2607 -19 c47 -19 114 -97 127 -147 6 -23 10 -68 8 -101 -3 -54 -2
-58 19 -58 47 0 53 -27 53 -260 0 -155 -3 -219 -12 -228 -9 -9 -80 -12 -259
-12 -217 0 -248 2 -260 17 -11 12 -15 67 -17 229 l-3 213 25 26 c14 14 35 25
48 25 17 0 20 2 9 9 -19 12 -26 105 -12 158 30 111 165 175 274 129z m-2709
-162 c14 -5 16 -28 16 -149 l0 -143 47 -7 c145 -21 291 -174 325 -338 l11 -52
206 2 c213 3 271 8 271 22 0 17 32 20 65 6 22 -9 41 -27 51 -49 16 -32 16 -37
1 -60 -9 -14 -31 -29 -49 -33 -18 -4 -148 -6 -288 -3 -144 3 -258 1 -261 -4
-4 -5 -10 -27 -13 -49 -17 -107 -120 -236 -230 -288 -33 -16 -75 -29 -92 -29
l-31 0 -6 -146 c-3 -84 -10 -151 -16 -157 -7 -7 -23 -8 -48 -1 l-38 9 -3 140
c-3 144 -6 155 -47 155 -37 0 -159 66 -212 114 -101 91 -157 259 -133 398 31
180 189 350 347 374 l43 6 0 138 c0 124 2 139 18 143 27 7 49 8 66 1z m5296
-214 c0 -113 2 -130 16 -130 9 0 44 -13 78 -30 164 -78 263 -284 227 -475 -30
-159 -152 -295 -288 -321 l-33 -6 0 -139 0 -139 -45 0 -44 0 -3 136 -3 136
-58 18 c-138 43 -234 156 -255 301 l-7 54 -267 0 c-247 0 -268 2 -287 19 -27
24 -27 56 0 84 20 22 24 22 152 15 73 -4 193 -8 267 -8 l135 0 6 52 c9 68 40
131 97 194 54 60 102 92 163 110 24 7 47 18 51 24 4 5 8 63 8 127 l0 117 28 3
c59 8 62 0 62 -142z m-4776 58 c9 -12 16 -30 16 -38 0 -23 -37 -60 -60 -60
-28 0 -60 35 -60 64 0 54 74 78 104 34z m4284 -34 c25 -17 31 -71 10 -92 -20
-20 -65 -14 -82 10 -21 30 -20 54 4 78 24 24 38 25 68 4z m-320 -749 c10 -9
14 -1357 4 -1371 -4 -7 -36 -8 -90 -5 l-82 6 -1 655 c0 360 0 669 1 687 0 25
5 33 23 37 29 6 137 0 145 -9z m-3508 -688 c0 -375 3 -699 7 -719 l6 -38 -96
0 -96 0 -3 718 c-2 394 0 719 3 722 4 3 45 4 92 2 l86 -3 1 -682z m-451 331
c13 -23 13 -29 -2 -52 -24 -36 -82 -37 -98 -2 -35 76 59 126 100 54z m4282 32
c22 -12 26 -57 6 -84 -9 -13 -23 -17 -52 -14 -35 3 -40 6 -43 31 -7 58 40 93
89 67z m-908 -83 l21 -27 -21 -21 c-21 -21 -27 -22 -540 -25 -478 -3 -925 -12
-1638 -34 -259 -7 -282 -7 -305 10 -32 22 -35 41 -11 71 l19 24 404 8 c918 17
1431 24 1732 23 l319 -1 20 -28z m1409 -234 c48 -55 46 -102 -5 -133 -41 -26
-68 -25 -101 1 -36 28 -49 64 -35 92 23 45 41 57 84 57 27 0 47 -6 57 -17z
m-501 -3 c18 -10 49 -59 49 -79 0 -24 -53 -71 -80 -71 -28 0 -80 48 -80 73 1
22 27 60 51 73 29 16 35 17 60 4z m-4760 -39 c40 -40 40 -89 0 -133 -25 -28
-36 -33 -71 -32 -72 2 -117 48 -106 108 16 85 116 117 177 57z m484 -6 c37
-36 34 -86 -6 -119 -39 -33 -61 -33 -98 2 -46 41 -50 75 -13 112 39 38 83 40
117 5z m3362 -36 c20 -17 16 -56 -9 -73 -18 -13 -56 -16 -198 -16 -96 0 -308
-5 -470 -10 -162 -5 -632 -14 -1043 -21 l-748 -12 -22 22 c-20 20 -21 23 -7
49 15 26 21 27 110 33 52 4 196 7 320 8 224 1 993 15 1650 30 360 9 395 8 417
-10z m1403 -319 c0 -116 2 -140 15 -140 40 0 130 -46 180 -92 107 -98 155
-249 126 -403 -32 -173 -182 -326 -335 -342 -102 -11 -230 39 -297 114 -44 51
-91 155 -97 216 l-5 49 -206 -6 c-113 -3 -227 -8 -253 -12 -45 -6 -49 -5 -83
29 -19 19 -35 40 -35 46 0 16 59 79 81 86 13 4 40 -3 73 -20 52 -26 55 -27
229 -23 96 1 178 6 182 10 3 3 13 32 21 65 37 140 147 256 275 286 34 9 39 27
39 165 l0 112 45 0 45 0 0 -140z m-5282 -76 l3 -151 48 -6 c148 -18 301 -170
326 -325 l7 -44 117 7 c64 4 157 11 206 16 50 5 125 12 167 16 l77 6 20 -34
c28 -45 26 -63 -5 -88 -25 -20 -39 -21 -274 -21 -136 0 -261 -3 -278 -6 -28
-6 -32 -11 -43 -63 -48 -236 -271 -400 -496 -362 -251 43 -411 276 -359 527
22 108 59 177 141 260 72 73 134 109 204 120 l41 7 0 142 c0 78 3 145 7 149 4
4 25 6 48 4 l40 -3 3 -151z m3395 75 c15 -21 31 -39 36 -39 4 0 29 23 55 50
26 28 49 50 52 50 3 0 18 -29 34 -65 16 -36 32 -65 36 -65 3 0 28 16 54 35 26
19 53 35 59 35 7 0 11 -26 11 -73 0 -41 3 -76 6 -80 4 -3 22 0 41 8 38 16 83
20 83 8 0 -5 -7 -33 -15 -63 -8 -30 -15 -58 -15 -61 0 -3 25 -9 56 -12 88 -9
90 -16 29 -101 -20 -27 -35 -59 -33 -70 2 -13 26 -33 68 -57 35 -20 69 -43 74
-52 13 -21 -11 -48 -85 -93 -31 -19 -60 -41 -63 -50 -7 -18 6 -46 46 -94 15
-19 28 -40 28 -47 0 -18 -41 -43 -71 -43 -47 0 -59 -10 -59 -46 0 -30 -3 -34
-27 -34 -49 0 -57 -12 -57 -92 -1 -88 -11 -93 -82 -49 -54 35 -65 31 -83 -28
-6 -22 -18 -56 -26 -76 l-16 -36 -36 43 c-59 71 -66 73 -100 30 -16 -20 -35
-47 -42 -60 -16 -31 -26 -22 -61 54 -16 35 -32 64 -36 64 -5 0 -28 -19 -52
-42 -51 -51 -63 -43 -61 37 1 81 0 85 -21 85 -11 0 -37 -9 -57 -20 -20 -11
-39 -18 -41 -15 -2 2 4 38 14 79 10 42 14 79 11 83 -4 3 -37 10 -74 15 -37 4
-71 12 -76 17 -13 13 9 73 43 116 35 44 30 59 -28 102 -73 53 -82 64 -71 85 5
10 34 32 64 49 83 46 83 48 41 128 -42 80 -39 86 42 97 28 3 56 12 61 18 6 7
2 33 -12 73 -12 34 -19 65 -15 68 3 3 33 0 67 -8 33 -8 63 -12 66 -9 3 3 5 36
5 74 0 37 1 68 3 68 1 0 20 -9 42 -20 67 -34 83 -29 113 41 22 52 28 59 37 44
5 -9 22 -35 38 -56z m1399 4 c37 -33 10 -93 -43 -93 -45 0 -65 56 -32 92 20
22 51 23 75 1z m-4290 -50 c27 -24 23 -68 -8 -92 -36 -28 -58 -26 -83 5 -27
34 -26 52 1 81 25 27 64 30 90 6z m2178 -2 c15 -30 12 -59 -8 -70 -17 -9 -441
-25 -1002 -38 -264 -6 -265 -6 -285 16 -18 20 -18 25 -4 49 9 17 27 29 49 34
40 9 614 24 987 26 240 2 253 1 263 -17z m-320 -330 c0 -30 -53 -67 -209 -146
-136 -68 -204 -116 -188 -132 10 -9 228 12 389 38 75 12 143 19 152 16 9 -4
16 -18 16 -32 0 -20 -8 -29 -34 -40 -78 -33 -269 -65 -585 -100 -366 -39 -471
-33 -487 30 -18 71 48 145 193 217 56 28 106 48 110 44 8 -7 -6 -21 -121 -119
-93 -80 -74 -104 75 -92 121 10 183 26 188 50 7 41 54 85 134 126 45 23 117
62 160 87 120 68 207 91 207 53z m2114 -678 c-2 -398 0 -393 -95 -441 -39 -20
-92 -37 -132 -42 -36 -6 -297 -19 -579 -30 -282 -10 -555 -22 -605 -26 l-93
-6 -80 79 c-44 43 -80 84 -80 90 0 16 62 22 360 33 140 6 327 13 416 17 l161
6 34 86 c42 106 80 169 157 264 92 112 172 181 265 227 74 37 181 67 247 69
l25 1 -1 -327z m-3519 201 c17 -9 75 -36 130 -61 233 -105 345 -230 455 -507
l23 -58 126 6 c69 4 221 14 336 22 360 26 430 31 434 27 8 -6 -51 -81 -118
-147 l-69 -69 -189 -8 c-218 -11 -535 -33 -776 -54 -93 -9 -225 -16 -295 -18
-118 -2 -130 0 -169 22 -76 44 -76 42 -72 472 l4 378 35 4 c79 8 117 6 145 -9z
m1722 -144 c18 -10 39 -30 48 -44 14 -21 15 -29 3 -53 -7 -15 -30 -36 -50 -46
-32 -16 -43 -17 -73 -7 -34 11 -65 51 -65 83 0 20 39 67 64 77 31 13 38 12 73
-10z m7 -287 c3 -21 6 -85 6 -143 0 -123 6 -150 30 -150 26 0 124 -53 175 -95
51 -43 96 -109 121 -182 l19 -53 86 0 c48 0 101 -3 118 -6 28 -6 31 -10 31
-45 0 -46 -4 -48 -140 -52 l-94 -2 -13 -72 c-7 -43 -25 -97 -43 -132 -41 -76
-132 -164 -207 -199 -52 -24 -69 -27 -163 -27 -96 0 -110 3 -164 30 -112 56
-189 159 -216 288 l-11 57 -145 0 -145 0 3 43 3 42 145 10 144 10 12 42 c24
83 76 163 150 232 69 64 100 85 167 110 l27 11 0 122 c0 68 3 140 6 161 6 36
8 37 49 37 41 0 43 -1 49 -37z m754 -573 c41 -25 56 -58 48 -104 -10 -52 -45
-89 -86 -89 -38 0 -55 19 -71 76 -12 47 2 100 34 122 28 19 35 19 75 -5z
m-1559 -116 c36 -30 40 -66 16 -119 -16 -33 -50 -55 -86 -55 -30 0 -79 53 -73
78 3 11 1 23 -5 26 -15 9 11 60 41 80 33 23 72 19 107 -10z m620 -825 c34 -38
67 -67 72 -64 5 4 9 22 9 41 0 38 6 41 38 18 13 -9 22 -26 22 -41 0 -26 0 -26
20 -8 12 11 30 20 41 22 11 2 42 17 67 35 l47 31 -45 -47 c-24 -25 -39 -46
-33 -46 6 0 16 7 24 16 13 15 81 54 96 54 4 0 -7 -9 -24 -20 -18 -11 -33 -22
-33 -24 0 -2 24 2 53 10 28 7 72 13 97 13 l45 -1 -50 -8 c-54 -8 -111 -28
-103 -35 2 -3 20 0 39 5 47 14 72 13 63 -2 -6 -10 -4 -10 7 -2 8 6 32 14 54
17 l40 6 -40 -14 c-38 -13 -39 -13 -10 -14 17 0 49 4 72 8 28 5 40 5 36 -2 -4
-6 19 -8 63 -4 47 4 61 3 44 -3 -18 -6 -8 -8 35 -4 33 3 70 7 83 10 12 2 22 0
22 -5 0 -5 19 -8 41 -6 50 4 39 -12 -11 -18 -19 -2 7 -5 58 -5 51 -1 91 -5 89
-9 -3 -5 20 -7 51 -7 l57 2 -50 -8 c-40 -7 -31 -8 45 -5 84 2 96 -10 15 -15
-29 -2 -30 -2 -5 -10 l25 -7 -30 -5 -30 -5 33 -2 c19 0 32 4 33 12 0 6 3 7 5
2 2 -6 23 -9 45 -7 22 3 45 0 50 -5 6 -6 -14 -10 -52 -11 -75 -2 -92 -12 -23
-13 27 0 67 -4 89 -9 33 -8 30 -8 -23 -4 -44 4 -62 2 -57 -5 4 -7 -15 -12 -57
-13 l-63 -1 55 -6 55 -6 -55 -8 c-78 -12 -95 -18 -80 -27 7 -4 -48 -11 -121
-15 -122 -7 -130 -9 -103 -21 26 -12 20 -13 -69 -10 -98 2 -145 -9 -65 -17
l43 -4 -47 -1 c-26 -1 -50 3 -53 8 -3 6 -27 9 -53 9 -46 -2 -46 -2 -12 -9 38
-8 23 -12 -50 -12 l-45 0 40 -8 c22 -4 31 -8 20 -9 l-20 -2 20 -9 c11 -5 14
-9 6 -9 -19 -1 -132 28 -158 41 -11 5 -27 8 -35 5 -7 -3 6 -14 32 -26 44 -21
44 -21 10 -15 -19 3 -57 16 -85 29 l-50 24 65 -62 c36 -34 86 -78 112 -97 26
-19 48 -39 48 -43 0 -12 -54 27 -130 93 -67 59 -149 115 -156 107 -3 -2 24
-64 60 -138 35 -74 61 -138 58 -143 -3 -5 -11 8 -19 29 -7 21 -20 43 -28 49
-8 6 -36 54 -62 106 -78 155 -91 133 -100 -169 -6 -189 -7 -201 -19 -161 -9
30 -12 103 -11 236 1 106 -1 196 -5 200 -14 13 -41 -20 -71 -86 -16 -36 -42
-83 -57 -105 -15 -22 -52 -93 -83 -157 -31 -65 -58 -118 -61 -118 -15 0 64
182 127 291 30 53 77 167 77 186 0 2 -42 -33 -93 -79 -52 -46 -116 -98 -143
-117 -38 -26 -27 -12 54 67 56 55 102 105 102 110 0 6 -11 7 -27 3 -16 -4 -26
-10 -23 -14 7 -10 -77 -53 -181 -93 -50 -19 -121 -50 -157 -71 -37 -20 -60
-29 -52 -20 19 20 133 80 184 97 54 18 165 70 172 81 7 12 -3 11 -25 -1 -17
-9 -205 -60 -220 -60 -16 1 28 21 66 31 23 6 48 17 54 25 9 12 6 12 -20 3 -40
-14 -65 -5 -27 10 45 18 24 23 -24 6 -24 -8 -51 -13 -61 -10 -10 3 -53 -1 -95
-10 -42 -9 -79 -14 -81 -11 -3 2 22 9 54 16 32 6 69 15 83 20 23 8 24 8 3 9
-12 1 -52 -6 -90 -14 -37 -9 -78 -18 -90 -20 -13 -3 -23 -1 -23 4 0 6 17 13
38 17 20 3 64 14 97 23 l60 18 -90 -3 c-49 -1 -98 -5 -107 -9 -11 -4 -18 -3
-18 4 0 8 -21 9 -69 5 -43 -4 -75 -3 -87 5 -16 9 -13 10 16 6 27 -4 30 -3 15
4 -11 5 -38 10 -60 11 -33 1 -36 3 -20 10 14 7 8 8 -20 4 -30 -4 -36 -3 -25 5
11 8 -17 11 -105 13 -101 2 -107 3 -37 5 45 2 82 7 82 12 0 4 -27 6 -60 4 -36
-2 -60 1 -60 7 0 6 35 10 89 10 50 0 92 3 94 8 3 4 -20 6 -51 4 -32 -2 -75 1
-97 6 -32 8 -25 9 37 5 42 -3 85 -2 95 2 18 8 27 11 41 14 4 1 0 6 -8 12 -11
8 -4 9 28 5 29 -4 41 -3 37 4 -3 5 -25 11 -48 11 -23 1 -55 5 -72 9 -23 6 -14
8 35 7 36 -1 136 1 223 2 169 4 220 21 60 21 -53 0 -94 2 -92 4 3 3 98 6 212
7 114 0 207 5 207 10 0 5 -7 9 -15 9 -8 0 -15 4 -15 9 0 6 12 6 30 0 38 -14
64 -5 30 9 -46 20 7 13 60 -7 53 -20 66 -14 28 12 -42 29 -4 17 42 -13 24 -16
46 -27 49 -24 3 2 -20 30 -50 61 l-54 56 50 -34 c71 -50 145 -92 151 -87 2 3
-11 27 -31 54 -52 73 -58 85 -42 78 8 -3 42 -36 76 -75z m594 4 c-7 -2 -19 -2
-25 0 -7 3 -2 5 12 5 14 0 19 -2 13 -5z m-1286 -19 c-3 -3 -12 -4 -19 -1 -8 3
-5 6 6 6 11 1 17 -2 13 -5z m1371 -1 c-10 -2 -28 -2 -40 0 -13 2 -5 4 17 4 22
1 32 -1 23 -4z m195 0 c-7 -2 -19 -2 -25 0 -7 3 -2 5 12 5 14 0 19 -2 13 -5z
m-275 -10 c-10 -2 -26 -2 -35 0 -10 3 -2 5 17 5 19 0 27 -2 18 -5z m395 0 c-7
-2 -21 -2 -30 0 -10 3 -4 5 12 5 17 0 24 -2 18 -5z m-1479 -11 c3 -5 -1 -9 -9
-9 -8 0 -12 4 -9 9 3 4 7 8 9 8 2 0 6 -4 9 -8z m96 -8 c0 -2 -19 -4 -42 -4
-26 0 -38 4 -30 8 12 8 72 4 72 -4z m-337 -1 c-7 -2 -19 -2 -25 0 -7 3 -2 5
12 5 14 0 19 -2 13 -5z m180 0 c-7 -2 -19 -2 -25 0 -7 3 -2 5 12 5 14 0 19 -2
13 -5z m1200 0 c-7 -2 -19 -2 -25 0 -7 3 -2 5 12 5 14 0 19 -2 13 -5z m135 0
c-10 -2 -26 -2 -35 0 -10 3 -2 5 17 5 19 0 27 -2 18 -5z m200 -10 c-10 -2 -26
-2 -35 0 -10 3 -2 5 17 5 19 0 27 -2 18 -5z m99 1 c-3 -3 -12 -4 -19 -1 -8 3
-5 6 6 6 11 1 17 -2 13 -5z m191 -1 c-10 -2 -28 -2 -40 0 -13 2 -5 4 17 4 22
1 32 -1 23 -4z m-2085 -10 c-13 -2 -33 -2 -45 0 -13 2 -3 4 22 4 25 0 35 -2
23 -4z m1902 -12 c-16 -4 -59 -4 -95 0 -62 6 -60 6 30 6 56 1 83 -2 65 -6z
m198 -8 c-7 -2 -21 -2 -30 0 -10 3 -4 5 12 5 17 0 24 -2 18 -5z m-120 -10 c-7
-2 -19 -2 -25 0 -7 3 -2 5 12 5 14 0 19 -2 13 -5z m-2176 -9 c-3 -3 -12 -4
-19 -1 -8 3 -5 6 6 6 11 1 17 -2 13 -5z m2306 -1 c-7 -2 -19 -2 -25 0 -7 3 -2
5 12 5 14 0 19 -2 13 -5z m-2520 -20 c-7 -2 -21 -2 -30 0 -10 3 -4 5 12 5 17
0 24 -2 18 -5z m266 -9 c9 -8 -115 -2 -134 6 -12 6 9 7 55 3 41 -3 77 -7 79
-9z m-202 0 c-3 -3 -12 -4 -19 -1 -8 3 -5 6 6 6 11 1 17 -2 13 -5z m2440 -1
c-20 -2 -52 -2 -70 0 -17 2 0 4 38 4 39 0 53 -2 32 -4z m-2397 -20 c0 -5 -12
-9 -27 -10 -19 -1 -22 1 -12 8 17 11 39 12 39 2z m2493 0 c-7 -2 -19 -2 -25 0
-7 3 -2 5 12 5 14 0 19 -2 13 -5z m-10 -30 c-7 -2 -21 -2 -30 0 -10 3 -4 5 12
5 17 0 24 -2 18 -5z m-2630 -30 c-7 -2 -21 -2 -30 0 -10 3 -4 5 12 5 17 0 24
-2 18 -5z m2630 0 c-13 -2 -33 -2 -45 0 -13 2 -3 4 22 4 25 0 35 -2 23 -4z
m-2370 -30 c-7 -2 -19 -2 -25 0 -7 3 -2 5 12 5 14 0 19 -2 13 -5z m2247 -3 c0
-5 -7 -10 -16 -10 -8 0 -12 5 -9 10 3 6 10 10 16 10 5 0 9 -4 9 -10z m-41 -4
c-9 -10 -129 -15 -129 -6 0 6 30 10 67 10 36 0 64 -2 62 -4z m-2426 -13 c-7
-2 -21 -2 -30 0 -10 3 -4 5 12 5 17 0 24 -2 18 -5z m310 0 c-35 -2 -91 -2
-125 0 -35 2 -7 3 62 3 69 0 97 -1 63 -3z m-460 -10 c-7 -2 -19 -2 -25 0 -7 3
-2 5 12 5 14 0 19 -2 13 -5z m234 1 c-3 -3 -12 -4 -19 -1 -8 3 -5 6 6 6 11 1
17 -2 13 -5z m286 -11 c-13 -2 -33 -2 -45 0 -13 2 -3 4 22 4 25 0 35 -2 23 -4z
m131 -5 c-7 -11 47 -9 146 7 31 5 32 4 10 -5 -14 -5 -56 -14 -95 -19 -38 -4
-55 -9 -37 -10 57 -2 34 -16 -31 -18 -38 -1 -54 2 -42 6 11 5 25 6 31 4 6 -2
11 4 11 13 0 14 -10 15 -76 11 l-76 -5 80 13 c44 7 81 13 83 14 2 0 0 -4 -4
-11z m1703 6 c-3 -3 -12 -4 -19 -1 -8 3 -5 6 6 6 11 1 17 -2 13 -5z m58 -4 c3
-5 1 -10 -4 -10 -6 0 -11 5 -11 10 0 6 2 10 4 10 3 0 8 -4 11 -10z m140 0 c-3
-5 -34 -9 -68 -8 l-62 1 65 7 c36 4 66 7 68 8 2 1 0 -2 -3 -8z m-2417 -7 c-10
-2 -26 -2 -35 0 -10 3 -2 5 17 5 19 0 27 -2 18 -5z m159 1 c-3 -3 -12 -4 -19
-1 -8 3 -5 6 6 6 11 1 17 -2 13 -5z m1968 -4 c3 -5 1 -10 -4 -10 -6 0 -11 5
-11 10 0 6 2 10 4 10 3 0 8 -4 11 -10z m-2232 -7 c-7 -2 -21 -2 -30 0 -10 3
-4 5 12 5 17 0 24 -2 18 -5z m-66 -9 c-3 -3 -12 -4 -19 -1 -8 3 -5 6 6 6 11 1
17 -2 13 -5z m422 1 c-7 -7 -190 -35 -219 -34 -24 1 3 8 115 28 57 10 111 13
104 6z m1924 -2 c-7 -2 -19 -2 -25 0 -7 3 -2 5 12 5 14 0 19 -2 13 -5z m60 0
c-7 -2 -21 -2 -30 0 -10 3 -4 5 12 5 17 0 24 -2 18 -5z m-1805 -10 c-10 -2
-26 -2 -35 0 -10 3 -2 5 17 5 19 0 27 -2 18 -5z m1641 -10 c3 -2 -16 -3 -42
-2 -26 1 -47 6 -47 11 0 8 79 0 89 -9z m289 10 c-16 -2 -40 -2 -55 0 -16 2 -3
4 27 4 30 0 43 -2 28 -4z m-2011 -9 c-3 -3 -12 -4 -19 -1 -8 3 -5 6 6 6 11 1
17 -2 13 -5z m458 -4 c-14 -6 -15 -9 -5 -10 8 -1 -16 -9 -55 -20 -38 -10 -71
-17 -73 -15 -1 1 15 9 35 17 21 9 49 20 63 26 14 6 32 11 40 11 9 0 8 -4 -5
-9z m60 0 c-3 -5 -11 -10 -16 -10 -6 0 -7 5 -4 10 3 6 11 10 16 10 6 0 7 -4 4
-10z m1080 -10 c22 -6 105 -17 184 -25 79 -8 148 -18 153 -23 5 -5 -19 -5 -54
0 -35 5 -103 13 -153 18 -49 5 -112 14 -140 20 -27 6 -70 9 -95 6 -30 -3 -39
-2 -25 4 27 12 82 12 130 0z m233 3 c-16 -2 -40 -2 -55 0 -16 2 -3 4 27 4 30
0 43 -2 28 -4z m-2415 -10 c-7 -2 -19 -2 -25 0 -7 3 -2 5 12 5 14 0 19 -2 13
-5z m230 0 c-7 -2 -19 -2 -25 0 -7 3 -2 5 12 5 14 0 19 -2 13 -5z m634 1 c-3
-3 -12 -4 -19 -1 -8 3 -5 6 6 6 11 1 17 -2 13 -5z m1651 -1 c-10 -2 -28 -2
-40 0 -13 2 -5 4 17 4 22 1 32 -1 23 -4z m-405 -10 c-7 -2 -19 -2 -25 0 -7 3
-2 5 12 5 14 0 19 -2 13 -5z m460 0 c-7 -2 -19 -2 -25 0 -7 3 -2 5 12 5 14 0
19 -2 13 -5z m-410 -10 c-7 -2 -19 -2 -25 0 -7 3 -2 5 12 5 14 0 19 -2 13 -5z
m-1336 -69 c-3 -3 -12 -4 -19 -1 -8 3 -5 6 6 6 11 1 17 -2 13 -5z m113 2 c0
-2 -7 -7 -16 -10 -8 -3 -12 -2 -9 4 6 10 25 14 25 6z m-157 -13 c-7 -2 -19 -2
-25 0 -7 3 -2 5 12 5 14 0 19 -2 13 -5z m1347 -33 c0 -5 -2 -10 -4 -10 -3 0
-8 5 -11 10 -3 6 -1 10 4 10 6 0 11 -4 11 -10z m245 -120 c13 -5 14 -9 5 -9
-8 0 -24 4 -35 9 -13 5 -14 9 -5 9 8 0 24 -4 35 -9z m-555 -19 c0 -5 3 -17 7
-27 4 -11 3 -15 -4 -11 -14 9 -24 47 -12 47 5 0 9 -4 9 -9z"/>
<path d="M5012 8882 c-107 -38 -176 -143 -176 -267 0 -49 6 -84 21 -116 48
-108 165 -189 271 -189 145 0 275 152 259 305 -20 192 -208 326 -375 267z
m162 -135 c119 -67 109 -264 -15 -297 -53 -15 -95 -1 -142 48 -62 64 -69 122
-25 203 38 69 110 88 182 46z"/>
<path d="M2335 8007 c-86 -34 -142 -86 -178 -166 -15 -33 -21 -67 -21 -121 0
-130 61 -222 182 -278 109 -49 268 -14 343 77 60 74 78 210 39 313 -24 64 -95
138 -160 167 -51 23 -156 27 -205 8z m162 -126 c117 -54 136 -229 32 -298 -70
-46 -184 -27 -233 40 -17 23 -21 43 -21 101 0 63 3 77 27 108 50 66 119 83
195 49z"/>
<path d="M7636 7816 c-149 -55 -216 -241 -146 -404 72 -167 278 -206 403 -76
101 105 100 290 -2 406 -60 68 -177 102 -255 74z m117 -120 c68 -28 116 -118
103 -191 -11 -55 -70 -115 -121 -121 -85 -11 -155 62 -155 161 0 64 33 124 80
147 42 22 51 22 93 4z"/>
<path d="M5044 6601 c-36 -22 -64 -83 -64 -141 0 -32 -4 -39 -22 -42 -51 -9
110 -20 188 -13 l84 7 0 49 c0 123 -96 195 -186 140z"/>
<path d="M5052 6244 c-27 -19 -28 -56 -2 -92 19 -26 19 -28 2 -75 -20 -57 -12
-67 56 -67 54 0 63 19 34 72 -24 44 -21 60 15 83 20 13 23 22 18 43 -4 15 -11
33 -17 39 -15 18 -79 16 -106 -3z"/>
<path d="M2330 6093 c-56 -20 -144 -107 -170 -168 -62 -144 -14 -288 123 -373
48 -30 68 -36 132 -40 69 -4 80 -2 140 27 77 38 130 96 150 165 43 145 -15
305 -135 370 -67 37 -170 45 -240 19z m180 -135 c59 -41 75 -72 75 -148 0 -77
-15 -107 -76 -148 -65 -45 -177 -9 -217 68 -42 81 -14 179 65 231 40 27 111
25 153 -3z"/>
<path d="M2321 5784 c0 -11 3 -14 6 -6 3 7 2 16 -1 19 -3 4 -6 -2 -5 -13z"/>
<path d="M7614 6051 c-22 -10 -57 -38 -77 -61 -106 -124 -102 -318 9 -420 57
-52 99 -70 166 -70 192 1 313 225 224 416 -59 128 -204 189 -322 135z m152
-122 c81 -50 107 -159 57 -237 -48 -73 -119 -87 -192 -36 -51 36 -67 143 -32
212 41 80 101 102 167 61z"/>
<path d="M7639 4285 c-93 -30 -179 -161 -179 -273 0 -89 24 -157 73 -206 56
-56 102 -76 174 -76 226 0 343 276 199 471 -59 79 -171 114 -267 84z m141
-134 c65 -47 90 -143 56 -210 -22 -42 -83 -91 -112 -91 -36 0 -98 36 -116 68
-51 86 -18 211 66 248 36 16 70 11 106 -15z"/>
<path d="M2360 4181 c-80 -26 -153 -92 -198 -176 -23 -43 -27 -62 -27 -135 0
-73 4 -92 27 -136 56 -106 156 -160 279 -152 110 8 199 70 250 173 29 60 31
70 27 147 -7 123 -59 212 -153 260 -43 23 -161 34 -205 19z m160 -143 c48 -32
83 -102 77 -153 -10 -94 -79 -170 -149 -163 -21 2 -33 9 -34 18 -2 34 -4 41
-12 36 -5 -3 -21 18 -36 47 -16 29 -37 60 -47 70 -18 17 -19 17 -19 -10 1 -15
7 -39 15 -53 21 -37 18 -49 -6 -20 l-20 25 12 -25 c7 -14 17 -28 23 -32 7 -5
5 -8 -5 -8 -23 0 -49 59 -49 112 1 76 46 147 110 171 38 14 108 6 140 -15z
m-136 -298 c16 -16 -17 -12 -40 5 -18 14 -18 14 5 10 14 -3 29 -9 35 -15z"/>
<path d="M5839 4397 c-93 -26 -191 -103 -250 -196 -80 -124 -92 -295 -31 -424
41 -89 80 -137 145 -180 152 -101 314 -81 447 53 116 118 164 290 126 451 -17
73 -76 178 -123 219 -80 71 -216 104 -314 77z m180 -137 c155 -79 197 -323 85
-487 -42 -61 -132 -113 -195 -113 -105 0 -219 85 -254 189 -41 125 -6 284 80
359 90 80 193 99 284 52z"/>
<path d="M6710 3556 c-30 -24 -76 -66 -101 -92 -69 -73 -197 -259 -187 -270 3
-2 77 0 164 6 87 5 167 10 177 10 16 0 17 16 17 195 0 107 -3 195 -7 195 -5 0
-33 -20 -63 -44z"/>
<path d="M3434 3435 c-7 -48 -2 -391 6 -397 6 -5 394 13 399 18 2 2 -10 32
-27 66 -59 119 -212 276 -324 334 l-47 24 -7 -45z"/>
<path d="M5027 2824 c-134 -42 -226 -230 -184 -375 24 -80 61 -123 141 -164
89 -45 140 -47 224 -5 181 91 235 303 117 462 -19 26 -54 57 -77 69 -56 28
-156 34 -221 13z m153 -126 c57 -39 75 -72 75 -137 0 -97 -66 -171 -154 -171
-45 0 -77 19 -108 63 -35 51 -37 113 -3 181 40 83 122 110 190 64z"/>
<path d="M5773 1683 c9 -2 25 -2 35 0 9 3 1 5 -18 5 -19 0 -27 -2 -17 -5z"/>
<path d="M5713 1673 c9 -2 23 -2 30 0 6 3 -1 5 -18 5 -16 0 -22 -2 -12 -5z"/>
<path d="M4023 1563 c9 -2 23 -2 30 0 6 3 -1 5 -18 5 -16 0 -22 -2 -12 -5z"/>
<path d="M4570 1460 c0 -5 7 -7 15 -4 8 4 15 8 15 10 0 2 -7 4 -15 4 -8 0 -15
-4 -15 -10z"/>
</g>
</svg>
